<svg width="20" height="20" viewBox="0 0 20 20" fill="none" xmlns="http://www.w3.org/2000/svg">
<path d="M16.2501 14.1667C16.1417 14.1667 16.0334 14.1667 15.9251 14.2001L14.5834 11.4917C14.9584 11.1167 15.2084 10.5917 15.2084 10.0001C15.2084 8.85008 14.2751 7.91675 13.1251 7.91675C13.0167 7.91675 12.9167 7.91675 12.8001 7.95008L11.4417 5.24175C11.8417 4.86675 12.0834 4.34175 12.0834 3.75008C12.0834 2.60008 11.1501 1.66675 10.0001 1.66675C8.85008 1.66675 7.91675 2.60008 7.91675 3.75008C7.91675 4.34175 8.15841 4.86675 8.55008 5.24175L7.20008 7.95008C7.08341 7.91675 6.98341 7.91675 6.87508 7.91675C5.72508 7.91675 4.79175 8.85008 4.79175 10.0001C4.79175 10.5917 5.04175 11.1167 5.41675 11.4917L4.07508 14.2001C3.96675 14.1667 3.85841 14.1667 3.75008 14.1667C2.60008 14.1667 1.66675 15.1001 1.66675 16.2501C1.66675 17.4001 2.60008 18.3334 3.75008 18.3334C4.90008 18.3334 5.83341 17.4001 5.83341 16.2501C5.83341 15.6667 5.59175 15.1334 5.20008 14.7584L6.55008 12.0501C6.66675 12.0834 6.76675 12.0834 6.87508 12.0834C6.98341 12.0834 7.08341 12.0834 7.20008 12.0501L8.55841 14.7584C8.16675 15.1334 7.91675 15.6667 7.91675 16.2501C7.91675 17.4001 8.85008 18.3334 10.0001 18.3334C11.1501 18.3334 12.0834 17.4001 12.0834 16.2501C12.0834 15.1001 11.1501 14.1667 10.0001 14.1667C9.89175 14.1667 9.78341 14.1667 9.67508 14.2001L8.33341 11.4917C8.71675 11.1167 8.95841 10.5917 8.95841 10.0001C8.95841 9.40841 8.71675 8.88341 8.33341 8.50841L9.67508 5.80008C9.78341 5.83341 9.89175 5.83341 10.0001 5.83341C10.1084 5.83341 10.2167 5.83341 10.3251 5.80008L11.6667 8.50841C11.2917 8.88341 11.0417 9.41675 11.0417 10.0001C11.0417 11.1501 11.9751 12.0834 13.1251 12.0834C13.2334 12.0834 13.3334 12.0834 13.4501 12.0501L14.8084 14.7584C14.4167 15.1334 14.1667 15.6667 14.1667 16.2501C14.1667 17.4001 15.1001 18.3334 16.2501 18.3334C17.4001 18.3334 18.3334 17.4001 18.3334 16.2501C18.3334 15.1001 17.4001 14.1667 16.2501 14.1667Z" fill="#727272"/>
</svg>
